<?xml version='1.0' encoding='utf-8'?>
<svg width="34" height="22" viewBox="0.0 0.0 512.0 331.29411764705884" fill="none">
<path d="M250.9267,15.0588C169.4208,15.0588 85.8132,62.2327 19.9936,156.5801C18.1149,159.3028 17.0853,162.5208 17.035,165.8293C16.9847,169.1362 17.9161,172.3844 19.7112,175.1627C70.2837,254.327 152.7733,316.2353 250.9267,316.2353C348.0139,316.2353 432.1973,254.1387 482.8642,174.7968C484.617,172.0727 485.5492,168.9028 485.5492,165.6621C485.5492,162.423 484.617,159.2516 482.8642,156.5274C432.0828,78.0967 347.2821,15.0588 250.9267,15.0588Z" stroke="inherit" stroke-width="inherit" stroke-linecap="round" stroke-linejoin="round" />
<path d="M251.2821,249.3079C297.4871,249.3079 334.9429,211.852 334.9429,165.6471C334.9429,119.443 297.4871,81.9872 251.2821,81.9872C205.0786,81.9872 167.6228,119.443 167.6228,165.6471C167.6228,211.852 205.0786,249.3079 251.2821,249.3079Z" stroke="inherit" stroke-width="inherit" stroke-miterlimit="10" />
</svg>