<svg width="34" height="22" viewBox="0 0 34 22" fill="none" xmlns="http://www.w3.org/2000/svg">
<path d="M16.6631 1C11.2506 1 5.69853 4.13264 1.3277 10.3979C1.20294 10.5787 1.13457 10.7924 1.13123 11.0121C1.12789 11.2317 1.18974 11.4474 1.30895 11.6319C4.66728 16.8889 10.1451 21 16.6631 21C23.1103 21 28.7006 16.8764 32.0652 11.6076C32.1816 11.4267 32.2435 11.2162 32.2435 11.001C32.2435 10.7859 32.1816 10.5753 32.0652 10.3944C28.693 5.18611 23.0617 1 16.6631 1Z" stroke="#853BCE" stroke-width="2" stroke-linecap="round" stroke-linejoin="round"/>
<path d="M16.6867 16.5556C19.755 16.5556 22.2423 14.0683 22.2423 11C22.2423 7.93176 19.755 5.44446 16.6867 5.44446C13.6185 5.44446 11.1312 7.93176 11.1312 11C11.1312 14.0683 13.6185 16.5556 16.6867 16.5556Z" stroke="#853BCE" stroke-width="2" stroke-miterlimit="10"/>
</svg>
