<svg width="22" height="30" viewBox="0 0 22 30" fill="none" xmlns="http://www.w3.org/2000/svg">
<path d="M16 11.9688V6.03125C16 4.70517 15.4732 3.4334 14.5355 2.49572C13.5979 1.55803 12.3261 1.03125 11 1.03125C9.67392 1.03125 8.40215 1.55803 7.46447 2.49572C6.52678 3.4334 6 4.70517 6 6.03125V11.9688" stroke="#853BCE" stroke-width="2" stroke-linecap="round" stroke-linejoin="round"/>
<path d="M18 11.9688H4C2.34315 11.9688 1 13.3119 1 14.9688V25.9688C1 27.6256 2.34315 28.9688 4 28.9688H18C19.6569 28.9688 21 27.6256 21 25.9688V14.9688C21 13.3119 19.6569 11.9688 18 11.9688Z" stroke="#853BCE" stroke-width="2" stroke-linecap="round" stroke-linejoin="round"/>
</svg>
