<?xml version='1.0' encoding='utf-8'?>
<svg width="22" height="30" viewBox="0.0 0.0 375.46666666666664 512.0" fill="none">
<path d="M273.0667,204.2675V102.9333C273.0667,80.3016 264.0759,58.5967 248.0725,42.5936C232.0708,26.5904 210.3654,17.6 187.7333,17.6C165.1016,17.6 143.3967,26.5904 127.3936,42.5936C111.3904,58.5967 102.4,80.3016 102.4,102.9333V204.2675" stroke="inherit" stroke-width="inherit" stroke-linecap="round" stroke-linejoin="round" />
<path d="M307.2,204.2675H68.2667C39.9898,204.2675 17.0667,227.1898 17.0667,255.4675V443.2009C17.0667,471.4769 39.9898,494.4009 68.2667,494.4009H307.2C335.4778,494.4009 358.4,471.4769 358.4,443.2009V255.4675C358.4,227.1898 335.4778,204.2675 307.2,204.2675Z" stroke="inherit" stroke-width="inherit" stroke-linecap="round" stroke-linejoin="round" />
</svg>