<?xml version='1.0' encoding='utf-8'?>
<svg width="848" height="778" viewBox="0.0 0.0 512.0 469.73584905660374" fill="none">
<g filter="url(#filter0_d_414_2)">
<path d="M158.6512,10.8679C158.6512,7.8669 161.0838,5.434 164.0851,5.434H347.9149C350.9162,5.434 353.3488,7.8668 353.3488,10.8679V354.8365C353.3488,357.8373 350.9162,360.2705 347.9149,360.2705H164.0851C161.0838,360.2705 158.6512,357.8373 158.6512,354.8365V10.8679ZM377.318,33.6436C377.318,29.3687 382.0263,26.7678 385.6447,29.0437L502.8184,102.7375C504.3997,103.7319 505.3591,105.4696 505.3591,107.3377V449.1164C505.3591,453.3911 500.6509,455.9922 497.0325,453.7159L379.8587,380.0223C378.2774,379.0273 377.318,377.2903 377.318,375.4222V33.6436ZM126.3559,36.3595C129.9743,34.0836 134.6826,36.6844 134.6826,40.9594V382.7381C134.6826,384.6062 133.7232,386.3432 132.1419,387.3377L14.9685,461.0318C11.3497,463.3075 6.6415,460.707 6.6415,456.4317V114.6536C6.6415,112.7849 7.6011,111.0478 9.1825,110.0534L126.3559,36.3595Z" stroke="inherit" stroke-width="inherit" shape-rendering="crispEdges" />
</g>
<defs>
<filter id="filter0_d_414_2" x="0.5433962264150943" y="0.5433962264150943" width="510.9138113207547" height="468.6375849056604" filterUnits="userSpaceOnUse" color-interpolation-filters="sRGB">
<feFlood flood-opacity="0" result="BackgroundImageFix" />
<feColorMatrix in="SourceAlpha" type="matrix" values="0 0 0 0 0 0 0 0 0 0 0 0 0 0 0 0 0 0 127 0" result="hardAlpha" />
<feOffset dy="2" />
<feGaussianBlur stdDeviation="4.55" />
<feComposite in2="hardAlpha" operator="out" />
<feColorMatrix type="matrix" values="0 0 0 0 0.911458 0 0 0 0 0.822917 0 0 0 0 1 0 0 0 1 0" />
<feBlend mode="normal" in2="BackgroundImageFix" result="effect1_dropShadow_414_2" />
<feBlend mode="normal" in="SourceGraphic" in2="effect1_dropShadow_414_2" result="shape" />
</filter>
</defs>
</svg>