<svg width="65" height="84" viewBox="0 0 65 84" fill="none" xmlns="http://www.w3.org/2000/svg">
<path d="M21 35V33.8565C21 31.0281 22.875 28.7105 25.545 28.0263L58.2806 19.1296C58.8354 18.9787 59.4169 18.9593 59.9802 19.073C60.5435 19.1866 61.0736 19.4303 61.5296 19.7852C61.9856 20.14 62.3554 20.5966 62.6103 21.1197C62.8652 21.6428 62.9986 22.2185 63 22.8022V26.9952" stroke="#A688FA" stroke-width="4" stroke-linecap="round" stroke-linejoin="round"/>
<path d="M63 49.6692V65.053C63 67.7278 61.2977 69.9739 58.8062 70.8219L54.6125 72.3603C49.6753 74.0371 44.7 70.3565 44.7 65.053C44.6886 63.6906 45.1073 62.3599 45.8956 61.2536C46.6838 60.1473 47.8007 59.3228 49.0844 58.8995L58.8062 55.4093C61.2977 54.5632 63 52.3441 63 49.6692ZM63 49.6692V3.91411C62.9987 3.6197 62.9303 3.32954 62.8002 3.06598C62.6702 2.80242 62.4819 2.57251 62.2498 2.39396C62.0177 2.21542 61.7481 2.09301 61.4618 2.03617C61.1754 1.97934 60.8799 1.98959 60.5981 2.06614L22.5875 12.3752C21.9245 12.5641 21.3415 12.9675 20.9282 13.5235C20.5149 14.0794 20.2941 14.757 20.3 15.4519V58.911M20.3 58.911C20.3 61.5859 18.5977 63.8338 16.1062 64.6799L6.19375 68.1413C3.54787 69.0412 2 71.4526 2 74.2948C2 79.5983 7.05538 83.2462 11.9125 81.602L16.1062 80.0637C18.5977 79.2176 20.3 76.9715 20.3 74.2948V58.911Z" stroke="#A688FA" stroke-width="4" stroke-linecap="round" stroke-linejoin="round"/>
</svg>
