<?xml version='1.0' encoding='utf-8'?>
<svg width="65" height="84" viewBox="0.0 0.0 396.19047619047615 512.0" fill="none">
<path d="M128,213.3333V206.3634C128,189.1237 139.4286,174.9973 155.7029,170.827L355.2341,116.5995C358.6158,115.6797 362.1602,115.5614 365.5936,116.2545C369.027,116.9469 372.2581,118.4323 375.0376,120.5955C377.817,122.7581 380.071,125.5412 381.6247,128.7296C383.1784,131.918 383.9915,135.427 384,138.9848V164.5422" stroke="inherit" stroke-width="inherit" stroke-linecap="round" stroke-linejoin="round" />
<path d="M384,302.7456V396.5135C384,412.8171 373.6241,426.5076 358.4378,431.6763L332.8762,441.0533C302.7828,451.2738 272.4571,428.8396 272.4571,396.5135C272.3877,388.2094 274.9397,380.0984 279.7446,373.3553C284.5489,366.6121 291.3566,361.5866 299.1811,359.0065L358.4378,337.7329C373.6241,332.5757 384,319.0498 384,302.7456ZM384,302.7456V23.8574C383.9921,22.0629 383.5752,20.2943 382.7822,18.6879C381.9898,17.0814 380.8421,15.6801 379.4274,14.5918C378.0126,13.5035 376.3694,12.7574 374.6243,12.4109C372.8786,12.0645 371.0775,12.127 369.3598,12.5936L137.6762,75.4298C133.635,76.5812 130.0815,79.04 127.5624,82.429C125.0432,85.8173 123.6974,89.9474 123.7333,94.183V359.0766M123.7333,359.0766C123.7333,375.3807 113.3574,389.0822 98.1711,394.2394L37.7524,415.3374C21.6251,420.8226 12.1905,435.5206 12.1905,452.8445C12.1905,485.1706 43.0042,507.4054 72.6095,497.3836L98.1711,488.0073C113.3574,482.8501 123.7333,469.1596 123.7333,452.8445V359.0766Z" stroke="inherit" stroke-width="inherit" stroke-linecap="round" stroke-linejoin="round" />
</svg>