<svg width="42" height="42" viewBox="0 0 42 42" fill="none" xmlns="http://www.w3.org/2000/svg">
<path d="M41 21C41 9.95833 32.0417 1 21 1C9.95833 1 1 9.95833 1 21C1 32.0417 9.95833 41 21 41C32.0417 41 41 32.0417 41 21Z" stroke="#E8D2FF" stroke-width="2" stroke-miterlimit="10"/>
<path d="M15.1666 28.2011V13.799V28.2011ZM15.1666 28.2011C15.1655 28.4003 15.2173 28.5962 15.3169 28.7687C15.4164 28.9413 15.5601 29.0843 15.7331 29.183C15.9062 29.2817 16.1023 29.3326 16.3015 29.3304C16.5007 29.3283 16.6958 29.2732 16.8666 29.1709L15.1666 28.2011ZM16.1666 13.799H16.1667L16.1666 13.7932C16.1665 13.7714 16.1722 13.7499 16.1831 13.731C16.194 13.7122 16.2097 13.6965 16.2286 13.6857C16.2476 13.6749 16.2691 13.6693 16.2909 13.6696C16.3124 13.6698 16.3334 13.6757 16.3519 13.6866C16.3522 13.6867 16.3525 13.6869 16.3527 13.687L28.2682 20.8853C28.2685 20.8854 28.2688 20.8856 28.2691 20.8858C28.2884 20.8977 28.3043 20.9144 28.3155 20.9342C28.3268 20.9543 28.3327 20.977 28.3327 21C28.3327 21.0231 28.3268 21.0457 28.3155 21.0658C28.3044 21.0857 28.2884 21.1023 28.2691 21.1143C28.2688 21.1145 28.2685 21.1146 28.2682 21.1148L16.3527 28.313C16.3525 28.3132 16.3522 28.3133 16.352 28.3135C16.3334 28.3244 16.3124 28.3303 16.2909 28.3305C16.269 28.3307 16.2476 28.3252 16.2286 28.3144C16.2097 28.3036 16.194 28.2879 16.1831 28.269L15.3198 28.7671L16.1831 28.269C16.1722 28.2501 16.1665 28.2287 16.1666 28.2069H16.1666V28.2011V13.799Z" fill="#E8D2FF" stroke="#E8D2FF" stroke-width="2"/>
</svg>
