<svg width="23" height="22" viewBox="0 0 23 22" fill="none" xmlns="http://www.w3.org/2000/svg">
<path d="M21.1381 1.27098C21.13 1.2315 21.1107 1.19516 21.0826 1.16627C21.0545 1.13737 21.0187 1.11711 20.9795 1.10786C18.365 0.467899 12.3254 2.7482 9.04983 6.02406C8.46605 6.60352 7.93374 7.2327 7.45892 7.9045C6.44927 7.81308 5.43963 7.89006 4.57999 8.26538C2.15252 9.3336 1.44625 12.1235 1.24913 13.3211C1.23845 13.3867 1.24301 13.4539 1.26246 13.5175C1.28191 13.5811 1.31573 13.6393 1.36129 13.6877C1.40685 13.7361 1.46293 13.7734 1.52519 13.7966C1.58745 13.8198 1.65421 13.8283 1.72029 13.8215L5.618 13.3933C5.6207 13.6875 5.63835 13.9814 5.67089 14.2738C5.69123 14.476 5.78134 14.6647 5.9257 14.8075L7.43488 16.3179C7.57769 16.4625 7.76642 16.5527 7.96855 16.5729C8.25898 16.6053 8.55087 16.623 8.84309 16.6258L8.41567 20.5234C8.409 20.5894 8.41759 20.6562 8.44079 20.7184C8.46398 20.7806 8.50116 20.8366 8.54944 20.8821C8.59773 20.9277 8.65582 20.9615 8.71925 20.9809C8.78267 21.0004 8.84972 21.005 8.91521 20.9945C10.1124 20.802 12.9057 20.0951 13.9668 17.6662C14.3418 16.8048 14.4187 15.7997 14.3322 14.794C15.0054 14.3192 15.6359 13.7865 16.2164 13.2018C19.504 9.92978 21.768 4.01803 21.1381 1.27098ZM13.2942 8.96309C13.007 8.67576 12.8114 8.30966 12.7322 7.91109C12.6529 7.51252 12.6936 7.09938 12.8489 6.72392C13.0043 6.34846 13.2674 6.02754 13.6051 5.80175C13.9427 5.57597 14.3396 5.45545 14.7457 5.45545C15.1517 5.45545 15.5486 5.57597 15.8863 5.80175C16.2239 6.02754 16.487 6.34846 16.6424 6.72392C16.7977 7.09938 16.8384 7.51252 16.7591 7.91109C16.6799 8.30966 16.4843 8.67576 16.1971 8.96309C16.0067 9.15412 15.7804 9.30567 15.5314 9.40908C15.2823 9.51248 15.0153 9.56571 14.7457 9.56571C14.476 9.56571 14.209 9.51248 13.9599 9.40908C13.7109 9.30567 13.4846 9.15412 13.2942 8.96309Z" stroke="#853BCE" stroke-width="2" stroke-linecap="round" stroke-linejoin="round"/>
<path d="M4.20641 15.6192C3.72712 15.6781 3.28123 15.8955 2.93955 16.237C2.09241 17.0878 2.01212 20.2385 2.01212 20.2385C2.01212 20.2385 5.1622 20.1582 6.00982 19.3094C6.35242 18.9679 6.57006 18.5209 6.62763 18.0405" stroke="#853BCE" stroke-width="2" stroke-linecap="round" stroke-linejoin="round"/>
</svg>
