<?xml version='1.0' encoding='utf-8'?>
<svg width="23" height="22" viewBox="0.0 0.0 512.0 489.7391304347826" fill="none">
<path d="M470.5525,28.2931C470.3722,27.4143 469.9425,26.6053 469.317,25.9622C468.6915,25.3188 467.8945,24.8678 467.0219,24.6619C408.8209,10.4158 274.3741,61.1773 201.4571,134.1008C188.4616,147.0001 176.612,161.0062 166.042,175.961C143.5664,173.926 121.0909,175.6396 101.9546,183.9945C47.917,207.7741 32.1948,269.8797 27.8067,296.5393C27.569,297.9996 27.6705,299.4955 28.1035,300.9113C28.5364,302.3271 29.2893,303.6227 30.3035,304.7001C31.3177,305.7775 32.5661,306.6079 33.9521,307.1243C35.338,307.6408 36.8242,307.83 38.2952,307.6786L125.0616,298.1465C125.1217,304.6957 125.5146,311.2381 126.2389,317.7472C126.6917,322.2483 128.6977,326.449 131.9112,329.6278L165.5069,363.2506C168.686,366.4696 172.8873,368.4775 177.3869,368.9272C183.8521,369.6484 190.3498,370.0424 196.8549,370.1048L187.3401,456.8687C187.1917,458.3379 187.3829,459.825 187.8993,461.2096C188.4156,462.5942 189.2432,463.8408 190.318,464.8537C191.3929,465.8688 192.6861,466.6212 194.0981,467.0531C195.5099,467.4872 197.0025,467.5896 198.4603,467.3558C225.1108,463.0706 287.2921,447.3344 310.9131,393.265C319.2609,374.0895 320.9728,351.7151 319.0472,329.3273C334.0333,318.7578 348.0687,306.8995 360.9912,293.8835C434.176,221.0455 484.5746,89.4448 470.5525,28.2931ZM295.9405,199.5262C289.5471,193.13 285.1929,184.9803 283.4298,176.1077C281.6646,167.2352 282.5706,158.0384 286.0277,149.6803C289.487,141.3222 295.3439,134.1783 302.8614,129.152C310.3766,124.1259 319.212,121.4431 328.2521,121.4431C337.29,121.4431 346.1254,124.1259 353.6429,129.152C361.1581,134.1783 367.015,141.3222 370.4743,149.6803C373.9314,158.0384 374.8374,167.2352 373.0721,176.1077C371.3091,184.9803 366.9549,193.13 360.5615,199.5262C356.3231,203.7787 351.2854,207.1523 345.7425,209.4543C340.1973,211.7561 334.2536,212.941 328.2521,212.941C322.2483,212.941 316.3047,211.7561 310.7595,209.4543C305.2166,207.1523 300.1789,203.7787 295.9405,199.5262Z" stroke="inherit" stroke-width="inherit" stroke-linecap="round" stroke-linejoin="round" />
<path d="M93.6383,347.697C82.9689,349.0081 73.043,353.8477 65.4369,361.4497C46.5789,380.3893 44.7915,450.5266 44.7915,450.5266C44.7915,450.5266 114.9151,448.7391 133.7838,429.844C141.4104,422.2419 146.2552,412.2913 147.5368,401.5972" stroke="inherit" stroke-width="inherit" stroke-linecap="round" stroke-linejoin="round" />
</svg>