<?xml version='1.0' encoding='utf-8'?>
<svg width="23" height="23" viewBox="0.0 0.0 512.0 512.0" fill="none">
<path d="M218.0543,47.3043C184.2833,47.3043 151.2704,57.3186 123.1908,76.081C95.1111,94.8431 73.2256,121.5107 60.302,152.7111C47.3783,183.9117 43.9968,218.2438 50.5854,251.3653C57.1737,284.4872 73.4362,314.9134 97.3158,338.7926C121.1957,362.6719 151.6206,378.9357 184.7427,385.5226C217.8649,392.1119 252.1978,388.7304 283.3987,375.8058C314.5973,362.8833 341.2658,340.9987 360.0273,312.9188C378.791,284.839 388.8039,251.8261 388.8039,218.0543C388.8017,172.7695 370.8104,129.3403 338.7904,97.319C306.7681,65.2978 263.3394,47.3072 218.0543,47.3043Z" stroke="inherit" stroke-width="inherit" stroke-miterlimit="10" />
<path d="M345.4464,345.4464L464.6957,464.6957" stroke="inherit" stroke-width="inherit" stroke-miterlimit="10" stroke-linecap="round" />
</svg>