<svg width="19" height="22" viewBox="0 0 19 22" fill="none" xmlns="http://www.w3.org/2000/svg">
<path d="M2.53845 4.0769L3.49999 19.4615C3.54566 20.3505 4.1923 21 5.03845 21H13.8846C14.7341 21 15.3687 20.3505 15.4231 19.4615L16.3846 4.0769" stroke="#853BCE" stroke-width="2" stroke-linecap="round" stroke-linejoin="round"/>
<path d="M1 4.0769H17.9231Z" fill="black"/>
<path d="M1 4.0769H17.9231" stroke="#853BCE" stroke-width="2" stroke-miterlimit="10" stroke-linecap="round"/>
<path d="M6.38462 4.07693V2.15385C6.38417 2.0022 6.41371 1.85196 6.47154 1.71177C6.52937 1.57158 6.61435 1.4442 6.72158 1.33697C6.82881 1.22973 6.95619 1.14476 7.09638 1.08693C7.23657 1.0291 7.38681 0.999561 7.53846 1H11.3846C11.5363 0.999561 11.6865 1.0291 11.8267 1.08693C11.9669 1.14476 12.0943 1.22973 12.2015 1.33697C12.3087 1.4442 12.3937 1.57158 12.4515 1.71177C12.5094 1.85196 12.5389 2.0022 12.5385 2.15385V4.07693M9.46154 7.15385V17.9231M6 7.15385L6.38462 17.9231M12.9231 7.15385L12.5385 17.9231" stroke="#853BCE" stroke-width="2" stroke-linecap="round" stroke-linejoin="round"/>
</svg>
