<?xml version='1.0' encoding='utf-8'?>
<svg width="19" height="22" viewBox="0.0 0.0 442.1818181818182 512.0" fill="none">
<path d="M59.0767,94.8806L81.4543,452.9222C82.5172,473.6116 97.5663,488.7273 117.2585,488.7273H323.1325C342.9027,488.7273 357.6716,473.6116 358.9376,452.9222L381.3143,94.8806" stroke="inherit" stroke-width="inherit" stroke-linecap="round" stroke-linejoin="round" />
<path d="M23.2727,94.8806H417.1194Z" fill="black" />
<path d="M23.2727,94.8806H417.1194" stroke="inherit" stroke-width="inherit" stroke-miterlimit="10" stroke-linecap="round" />
<path d="M148.5875,94.8813V50.126C148.577,46.5967 149.2645,43.1002 150.6104,39.8376C151.9562,36.575 153.934,33.6105 156.4295,31.1149C158.925,28.6192 161.8895,26.6417 165.1521,25.2958C168.4147,23.95 171.9112,23.2625 175.4405,23.2727H264.9507C268.4812,23.2625 271.9767,23.95 275.2396,25.2958C278.5024,26.6417 281.4673,28.6192 283.9622,31.1149C286.457,33.6105 288.4352,36.575 289.7804,39.8376C291.1279,43.1002 291.8144,46.5967 291.8051,50.126V94.8813M220.1958,166.4896V417.1194M139.6364,166.4896L148.5875,417.1194M300.7558,166.4896L291.8051,417.1194" stroke="inherit" stroke-width="inherit" stroke-linecap="round" stroke-linejoin="round" />
</svg>